  0
SECTION
  2
HEADER
  9
$ACADVER
  1
AC1009
  9
$EXTMIN
 10
0.0
 20
0.0
 30
0.0
  9
$EXTMAX
 10
1000.0
 20
1000.0
 30
0.0
  9
$FILLMODE
 70
 0
  9
$SPLFRAME
 70
 1
  0
ENDSEC
  0
SECTION
  2
TABLES
  0
TABLE
  2
LAYER
 70
1
  0
LAYER
  2
0
 70
     0
 62
     7
  6
CONTINUOUS
  0
ENDTAB
  0
ENDSEC
  0
SECTION
  2
ENTITIES
  0
LINE
  8
0
 62
     0
 10
0.0950846
 20
139.252
 30
0.0
 11
96.296
 21
139.252
 31
0.0
  0
LINE
  8
0
 62
     0
 10
96.296
 20
139.252
 30
0.0
 11
96.296
 21
0.190169
 31
0.0
  0
LINE
  8
0
 62
     0
 10
96.296
 20
0.190169
 30
0.0
 11
0.0950846
 21
0.190169
 31
0.0
  0
LINE
  8
0
 62
     0
 10
0.0950846
 20
0.190169
 30
0.0
 11
0.0950846
 21
139.252
 31
0.0
  0
LINE
  8
0
 62
     0
 10
4.55306
 20
6.85437
 30
0.0
 11
4.0652
 21
6.60633
 31
0.0
  0
LINE
  8
0
 62
     0
 10
4.0652
 20
6.60633
 30
0.0
 11
3.67799
 21
6.21908
 31
0.0
  0
LINE
  8
0
 62
     0
 10
3.67799
 20
6.21908
 30
0.0
 11
3.42994
 21
5.73126
 31
0.0
  0
LINE
  8
0
 62
     0
 10
3.42994
 20
5.73126
 30
0.0
 11
3.3445
 21
5.18968
 31
0.0
  0
LINE
  8
0
 62
     0
 10
3.3445
 20
5.18968
 30
0.0
 11
3.42994
 21
4.64813
 31
0.0
  0
LINE
  8
0
 62
     0
 10
3.42994
 20
4.64813
 30
0.0
 11
3.67799
 21
4.16031
 31
0.0
  0
LINE
  8
0
 62
     0
 10
3.67799
 20
4.16031
 30
0.0
 11
4.0652
 21
3.77306
 31
0.0
  0
LINE
  8
0
 62
     0
 10
4.0652
 20
3.77306
 30
0.0
 11
4.55306
 21
3.5264
 31
0.0
  0
LINE
  8
0
 62
     0
 10
4.55306
 20
3.5264
 30
0.0
 11
5.0946
 21
3.43958
 31
0.0
  0
LINE
  8
0
 62
     0
 10
5.0946
 20
3.43958
 30
0.0
 11
5.63481
 21
3.5264
 31
0.0
  0
LINE
  8
0
 62
     0
 10
5.63481
 20
3.5264
 30
0.0
 11
6.12263
 21
3.77306
 31
0.0
  0
LINE
  8
0
 62
     0
 10
6.12263
 20
3.77306
 30
0.0
 11
6.50984
 21
4.16031
 31
0.0
  0
LINE
  8
0
 62
     0
 10
6.50984
 20
4.16031
 30
0.0
 11
6.75792
 21
4.64813
 31
0.0
  0
LINE
  8
0
 62
     0
 10
6.75792
 20
4.64813
 30
0.0
 11
6.8447
 21
5.18968
 31
0.0
  0
LINE
  8
0
 62
     0
 10
6.8447
 20
5.18968
 30
0.0
 11
6.75792
 21
5.73126
 31
0.0
  0
LINE
  8
0
 62
     0
 10
6.75792
 20
5.73126
 30
0.0
 11
6.50984
 21
6.21908
 31
0.0
  0
LINE
  8
0
 62
     0
 10
6.50984
 20
6.21908
 30
0.0
 11
6.12263
 21
6.60633
 31
0.0
  0
LINE
  8
0
 62
     0
 10
6.12263
 20
6.60633
 30
0.0
 11
5.63481
 21
6.85437
 31
0.0
  0
LINE
  8
0
 62
     0
 10
5.63481
 20
6.85437
 30
0.0
 11
5.0946
 21
6.93981
 31
0.0
  0
LINE
  8
0
 62
     0
 10
5.0946
 20
6.93981
 30
0.0
 11
4.55306
 21
6.85437
 31
0.0
  0
LINE
  8
0
 62
     0
 10
90.7549
 20
6.85437
 30
0.0
 11
90.267
 21
6.60633
 31
0.0
  0
LINE
  8
0
 62
     0
 10
90.267
 20
6.60633
 30
0.0
 11
89.8797
 21
6.21908
 31
0.0
  0
LINE
  8
0
 62
     0
 10
89.8797
 20
6.21908
 30
0.0
 11
89.6303
 21
5.73126
 31
0.0
  0
LINE
  8
0
 62
     0
 10
89.6303
 20
5.73126
 30
0.0
 11
89.5449
 21
5.18968
 31
0.0
  0
LINE
  8
0
 62
     0
 10
89.5449
 20
5.18968
 30
0.0
 11
89.6303
 21
4.64813
 31
0.0
  0
LINE
  8
0
 62
     0
 10
89.6303
 20
4.64813
 30
0.0
 11
89.8797
 21
4.16031
 31
0.0
  0
LINE
  8
0
 62
     0
 10
89.8797
 20
4.16031
 30
0.0
 11
90.267
 21
3.77306
 31
0.0
  0
LINE
  8
0
 62
     0
 10
90.267
 20
3.77306
 30
0.0
 11
90.7549
 21
3.5264
 31
0.0
  0
LINE
  8
0
 62
     0
 10
90.7549
 20
3.5264
 30
0.0
 11
91.295
 21
3.43958
 31
0.0
  0
LINE
  8
0
 62
     0
 10
91.295
 20
3.43958
 30
0.0
 11
91.8351
 21
3.5264
 31
0.0
  0
LINE
  8
0
 62
     0
 10
91.8351
 20
3.5264
 30
0.0
 11
92.323
 21
3.77306
 31
0.0
  0
LINE
  8
0
 62
     0
 10
92.323
 20
3.77306
 30
0.0
 11
92.7104
 21
4.16031
 31
0.0
  0
LINE
  8
0
 62
     0
 10
92.7104
 20
4.16031
 30
0.0
 11
92.9598
 21
4.64813
 31
0.0
  0
LINE
  8
0
 62
     0
 10
92.9598
 20
4.64813
 30
0.0
 11
93.0451
 21
5.18968
 31
0.0
  0
LINE
  8
0
 62
     0
 10
93.0451
 20
5.18968
 30
0.0
 11
92.9598
 21
5.73126
 31
0.0
  0
LINE
  8
0
 62
     0
 10
92.9598
 20
5.73126
 30
0.0
 11
92.7104
 21
6.21908
 31
0.0
  0
LINE
  8
0
 62
     0
 10
92.7104
 20
6.21908
 30
0.0
 11
92.323
 21
6.60633
 31
0.0
  0
LINE
  8
0
 62
     0
 10
92.323
 20
6.60633
 30
0.0
 11
91.8351
 21
6.85437
 31
0.0
  0
LINE
  8
0
 62
     0
 10
91.8351
 20
6.85437
 30
0.0
 11
91.295
 21
6.93981
 31
0.0
  0
LINE
  8
0
 62
     0
 10
91.295
 20
6.93981
 30
0.0
 11
90.7549
 21
6.85437
 31
0.0
  0
LINE
  8
0
 62
     0
 10
22.1437
 20
26.716
 30
0.0
 11
22.1437
 21
22.0156
 31
0.0
  0
LINE
  8
0
 62
     0
 10
22.1437
 20
22.0156
 30
0.0
 11
20.6196
 21
22.0156
 31
0.0
  0
LINE
  8
0
 62
     0
 10
20.6196
 20
22.0156
 30
0.0
 11
20.6196
 21
25.2457
 31
0.0
  0
LINE
  8
0
 62
     0
 10
20.6196
 20
25.2457
 30
0.0
 11
18.8929
 21
25.2457
 31
0.0
  0
LINE
  8
0
 62
     0
 10
18.8929
 20
25.2457
 30
0.0
 11
18.8929
 21
26.1662
 31
0.0
  0
LINE
  8
0
 62
     0
 10
18.8929
 20
26.1662
 30
0.0
 11
15.5939
 21
26.1662
 31
0.0
  0
LINE
  8
0
 62
     0
 10
15.5939
 20
26.1662
 30
0.0
 11
15.5939
 21
25.2457
 31
0.0
  0
LINE
  8
0
 62
     0
 10
15.5939
 20
25.2457
 30
0.0
 11
13.87
 21
25.2457
 31
0.0
  0
LINE
  8
0
 62
     0
 10
13.87
 20
25.2457
 30
0.0
 11
13.87
 21
22.0156
 31
0.0
  0
LINE
  8
0
 62
     0
 10
13.87
 20
22.0156
 30
0.0
 11
13.0431
 21
22.0156
 31
0.0
  0
LINE
  8
0
 62
     0
 10
13.0431
 20
22.0156
 30
0.0
 11
13.0431
 21
19.2154
 31
0.0
  0
LINE
  8
0
 62
     0
 10
13.0431
 20
19.2154
 30
0.0
 11
13.87
 21
19.2154
 31
0.0
  0
LINE
  8
0
 62
     0
 10
13.87
 20
19.2154
 30
0.0
 11
13.87
 21
12.9453
 31
0.0
  0
LINE
  8
0
 62
     0
 10
13.87
 20
12.9453
 30
0.0
 11
15.5939
 21
12.9453
 31
0.0
  0
LINE
  8
0
 62
     0
 10
15.5939
 20
12.9453
 30
0.0
 11
15.5939
 21
11.9655
 31
0.0
  0
LINE
  8
0
 62
     0
 10
15.5939
 20
11.9655
 30
0.0
 11
18.8929
 21
11.9655
 31
0.0
  0
LINE
  8
0
 62
     0
 10
18.8929
 20
11.9655
 30
0.0
 11
18.8929
 21
12.9453
 31
0.0
  0
LINE
  8
0
 62
     0
 10
18.8929
 20
12.9453
 30
0.0
 11
20.6196
 21
12.9453
 31
0.0
  0
LINE
  8
0
 62
     0
 10
20.6196
 20
12.9453
 30
0.0
 11
20.6196
 21
17.4157
 31
0.0
  0
LINE
  8
0
 62
     0
 10
20.6196
 20
17.4157
 30
0.0
 11
22.1437
 21
17.4157
 31
0.0
  0
LINE
  8
0
 62
     0
 10
22.1437
 20
17.4157
 30
0.0
 11
22.1437
 21
12.7152
 31
0.0
  0
LINE
  8
0
 62
     0
 10
22.1437
 20
12.7152
 30
0.0
 11
36.1446
 21
12.7152
 31
0.0
  0
LINE
  8
0
 62
     0
 10
36.1446
 20
12.7152
 30
0.0
 11
36.1446
 21
17.4157
 31
0.0
  0
LINE
  8
0
 62
     0
 10
36.1446
 20
17.4157
 30
0.0
 11
37.6686
 21
17.4157
 31
0.0
  0
LINE
  8
0
 62
     0
 10
37.6686
 20
17.4157
 30
0.0
 11
37.6686
 21
12.9453
 31
0.0
  0
LINE
  8
0
 62
     0
 10
37.6686
 20
12.9453
 30
0.0
 11
39.394
 21
12.9453
 31
0.0
  0
LINE
  8
0
 62
     0
 10
39.394
 20
12.9453
 30
0.0
 11
39.394
 21
11.9655
 31
0.0
  0
LINE
  8
0
 62
     0
 10
39.394
 20
11.9655
 30
0.0
 11
42.6932
 21
11.9655
 31
0.0
  0
LINE
  8
0
 62
     0
 10
42.6932
 20
11.9655
 30
0.0
 11
42.6932
 21
12.9453
 31
0.0
  0
LINE
  8
0
 62
     0
 10
42.6932
 20
12.9453
 30
0.0
 11
44.4183
 21
12.9453
 31
0.0
  0
LINE
  8
0
 62
     0
 10
44.4183
 20
12.9453
 30
0.0
 11
44.4183
 21
19.2154
 31
0.0
  0
LINE
  8
0
 62
     0
 10
44.4183
 20
19.2154
 30
0.0
 11
45.2452
 21
19.2154
 31
0.0
  0
LINE
  8
0
 62
     0
 10
45.2452
 20
19.2154
 30
0.0
 11
45.2452
 21
22.0156
 31
0.0
  0
LINE
  8
0
 62
     0
 10
45.2452
 20
22.0156
 30
0.0
 11
44.4183
 21
22.0156
 31
0.0
  0
LINE
  8
0
 62
     0
 10
44.4183
 20
22.0156
 30
0.0
 11
44.4183
 21
25.2457
 31
0.0
  0
LINE
  8
0
 62
     0
 10
44.4183
 20
25.2457
 30
0.0
 11
42.6932
 21
25.2457
 31
0.0
  0
LINE
  8
0
 62
     0
 10
42.6932
 20
25.2457
 30
0.0
 11
42.6932
 21
26.1662
 31
0.0
  0
LINE
  8
0
 62
     0
 10
42.6932
 20
26.1662
 30
0.0
 11
39.394
 21
26.1662
 31
0.0
  0
LINE
  8
0
 62
     0
 10
39.394
 20
26.1662
 30
0.0
 11
39.394
 21
25.2457
 31
0.0
  0
LINE
  8
0
 62
     0
 10
39.394
 20
25.2457
 30
0.0
 11
37.6686
 21
25.2457
 31
0.0
  0
LINE
  8
0
 62
     0
 10
37.6686
 20
25.2457
 30
0.0
 11
37.6686
 21
22.0156
 31
0.0
  0
LINE
  8
0
 62
     0
 10
37.6686
 20
22.0156
 30
0.0
 11
36.1446
 21
22.0156
 31
0.0
  0
LINE
  8
0
 62
     0
 10
36.1446
 20
22.0156
 30
0.0
 11
36.1446
 21
26.716
 31
0.0
  0
LINE
  8
0
 62
     0
 10
36.1446
 20
26.716
 30
0.0
 11
22.1437
 21
26.716
 31
0.0
  0
LINE
  8
0
 62
     0
 10
50.7199
 20
26.716
 30
0.0
 11
64.7196
 21
26.716
 31
0.0
  0
LINE
  8
0
 62
     0
 10
64.7196
 20
26.716
 30
0.0
 11
64.7196
 21
12.7152
 31
0.0
  0
LINE
  8
0
 62
     0
 10
64.7196
 20
12.7152
 30
0.0
 11
50.7199
 21
12.7152
 31
0.0
  0
LINE
  8
0
 62
     0
 10
50.7199
 20
12.7152
 30
0.0
 11
50.7199
 21
26.716
 31
0.0
  0
LINE
  8
0
 62
     0
 10
76.2688
 20
45.3401
 30
0.0
 11
76.2688
 21
44.5163
 31
0.0
  0
LINE
  8
0
 62
     0
 10
76.2688
 20
44.5163
 30
0.0
 11
69.9989
 21
44.5163
 31
0.0
  0
LINE
  8
0
 62
     0
 10
69.9989
 20
44.5163
 30
0.0
 11
69.9989
 21
42.7909
 31
0.0
  0
LINE
  8
0
 62
     0
 10
69.9989
 20
42.7909
 30
0.0
 11
69.0192
 21
42.7909
 31
0.0
  0
LINE
  8
0
 62
     0
 10
69.0192
 20
42.7909
 30
0.0
 11
69.0192
 21
39.4903
 31
0.0
  0
LINE
  8
0
 62
     0
 10
69.0192
 20
39.4903
 30
0.0
 11
69.9989
 21
39.4903
 31
0.0
  0
LINE
  8
0
 62
     0
 10
69.9989
 20
39.4903
 30
0.0
 11
69.9989
 21
37.7652
 31
0.0
  0
LINE
  8
0
 62
     0
 10
69.9989
 20
37.7652
 30
0.0
 11
74.4693
 21
37.7652
 31
0.0
  0
LINE
  8
0
 62
     0
 10
74.4693
 20
37.7652
 30
0.0
 11
74.4693
 21
36.2409
 31
0.0
  0
LINE
  8
0
 62
     0
 10
74.4693
 20
36.2409
 30
0.0
 11
69.7699
 21
36.2409
 31
0.0
  0
LINE
  8
0
 62
     0
 10
69.7699
 20
36.2409
 30
0.0
 11
69.7699
 21
22.2402
 31
0.0
  0
LINE
  8
0
 62
     0
 10
69.7699
 20
22.2402
 30
0.0
 11
74.4693
 21
22.2402
 31
0.0
  0
LINE
  8
0
 62
     0
 10
74.4693
 20
22.2402
 30
0.0
 11
74.4693
 21
20.7161
 31
0.0
  0
LINE
  8
0
 62
     0
 10
74.4693
 20
20.7161
 30
0.0
 11
69.9989
 21
20.7161
 31
0.0
  0
LINE
  8
0
 62
     0
 10
69.9989
 20
20.7161
 30
0.0
 11
69.9989
 21
18.9907
 31
0.0
  0
LINE
  8
0
 62
     0
 10
69.9989
 20
18.9907
 30
0.0
 11
69.0192
 21
18.9907
 31
0.0
  0
LINE
  8
0
 62
     0
 10
69.0192
 20
18.9907
 30
0.0
 11
69.0192
 21
15.6904
 31
0.0
  0
LINE
  8
0
 62
     0
 10
69.0192
 20
15.6904
 30
0.0
 11
69.9989
 21
15.6904
 31
0.0
  0
LINE
  8
0
 62
     0
 10
69.9989
 20
15.6904
 30
0.0
 11
69.9989
 21
13.9664
 31
0.0
  0
LINE
  8
0
 62
     0
 10
69.9989
 20
13.9664
 30
0.0
 11
76.2688
 21
13.9664
 31
0.0
  0
LINE
  8
0
 62
     0
 10
76.2688
 20
13.9664
 30
0.0
 11
76.2688
 21
13.141
 31
0.0
  0
LINE
  8
0
 62
     0
 10
76.2688
 20
13.141
 30
0.0
 11
79.0691
 21
13.141
 31
0.0
  0
LINE
  8
0
 62
     0
 10
79.0691
 20
13.141
 30
0.0
 11
79.0691
 21
13.9664
 31
0.0
  0
LINE
  8
0
 62
     0
 10
79.0691
 20
13.9664
 30
0.0
 11
82.2992
 21
13.9664
 31
0.0
  0
LINE
  8
0
 62
     0
 10
82.2992
 20
13.9664
 30
0.0
 11
82.2992
 21
15.6904
 31
0.0
  0
LINE
  8
0
 62
     0
 10
82.2992
 20
15.6904
 30
0.0
 11
83.2196
 21
15.6904
 31
0.0
  0
LINE
  8
0
 62
     0
 10
83.2196
 20
15.6904
 30
0.0
 11
83.2196
 21
18.9907
 31
0.0
  0
LINE
  8
0
 62
     0
 10
83.2196
 20
18.9907
 30
0.0
 11
82.2992
 21
18.9907
 31
0.0
  0
LINE
  8
0
 62
     0
 10
82.2992
 20
18.9907
 30
0.0
 11
82.2992
 21
20.7161
 31
0.0
  0
LINE
  8
0
 62
     0
 10
82.2992
 20
20.7161
 30
0.0
 11
79.0691
 21
20.7161
 31
0.0
  0
LINE
  8
0
 62
     0
 10
79.0691
 20
20.7161
 30
0.0
 11
79.0691
 21
22.2402
 31
0.0
  0
LINE
  8
0
 62
     0
 10
79.0691
 20
22.2402
 30
0.0
 11
83.7696
 21
22.2402
 31
0.0
  0
LINE
  8
0
 62
     0
 10
83.7696
 20
22.2402
 30
0.0
 11
83.7696
 21
36.2409
 31
0.0
  0
LINE
  8
0
 62
     0
 10
83.7696
 20
36.2409
 30
0.0
 11
79.0691
 21
36.2409
 31
0.0
  0
LINE
  8
0
 62
     0
 10
79.0691
 20
36.2409
 30
0.0
 11
79.0691
 21
37.7652
 31
0.0
  0
LINE
  8
0
 62
     0
 10
79.0691
 20
37.7652
 30
0.0
 11
82.2992
 21
37.7652
 31
0.0
  0
LINE
  8
0
 62
     0
 10
82.2992
 20
37.7652
 30
0.0
 11
82.2992
 21
39.4903
 31
0.0
  0
LINE
  8
0
 62
     0
 10
82.2992
 20
39.4903
 30
0.0
 11
83.2196
 21
39.4903
 31
0.0
  0
LINE
  8
0
 62
     0
 10
83.2196
 20
39.4903
 30
0.0
 11
83.2196
 21
42.7909
 31
0.0
  0
LINE
  8
0
 62
     0
 10
83.2196
 20
42.7909
 30
0.0
 11
82.2992
 21
42.7909
 31
0.0
  0
LINE
  8
0
 62
     0
 10
82.2992
 20
42.7909
 30
0.0
 11
82.2992
 21
44.5163
 31
0.0
  0
LINE
  8
0
 62
     0
 10
82.2992
 20
44.5163
 30
0.0
 11
79.0691
 21
44.5163
 31
0.0
  0
LINE
  8
0
 62
     0
 10
79.0691
 20
44.5163
 30
0.0
 11
79.0691
 21
45.3401
 31
0.0
  0
LINE
  8
0
 62
     0
 10
79.0691
 20
45.3401
 30
0.0
 11
76.2688
 21
45.3401
 31
0.0
  0
LINE
  8
0
 62
     0
 10
50.7199
 20
45.7659
 30
0.0
 11
64.7196
 21
45.7659
 31
0.0
  0
LINE
  8
0
 62
     0
 10
64.7196
 20
45.7659
 30
0.0
 11
64.7196
 21
31.7652
 31
0.0
  0
LINE
  8
0
 62
     0
 10
64.7196
 20
31.7652
 30
0.0
 11
50.7199
 21
31.7652
 31
0.0
  0
LINE
  8
0
 62
     0
 10
50.7199
 20
31.7652
 30
0.0
 11
50.7199
 21
45.7659
 31
0.0
  0
LINE
  8
0
 62
     0
 10
31.6701
 20
45.7659
 30
0.0
 11
45.6696
 21
45.7659
 31
0.0
  0
LINE
  8
0
 62
     0
 10
45.6696
 20
45.7659
 30
0.0
 11
45.6696
 21
31.7652
 31
0.0
  0
LINE
  8
0
 62
     0
 10
45.6696
 20
31.7652
 30
0.0
 11
31.6701
 21
31.7652
 31
0.0
  0
LINE
  8
0
 62
     0
 10
31.6701
 20
31.7652
 30
0.0
 11
31.6701
 21
45.7659
 31
0.0
  0
LINE
  8
0
 62
     0
 10
12.6201
 20
45.7659
 30
0.0
 11
26.6196
 21
45.7659
 31
0.0
  0
LINE
  8
0
 62
     0
 10
26.6196
 20
45.7659
 30
0.0
 11
26.6196
 21
31.7652
 31
0.0
  0
LINE
  8
0
 62
     0
 10
26.6196
 20
31.7652
 30
0.0
 11
12.6201
 21
31.7652
 31
0.0
  0
LINE
  8
0
 62
     0
 10
12.6201
 20
31.7652
 30
0.0
 11
12.6201
 21
45.7659
 31
0.0
  0
LINE
  8
0
 62
     0
 10
50.7199
 20
64.8159
 30
0.0
 11
64.7196
 21
64.8159
 31
0.0
  0
LINE
  8
0
 62
     0
 10
64.7196
 20
64.8159
 30
0.0
 11
64.7196
 21
50.8152
 31
0.0
  0
LINE
  8
0
 62
     0
 10
64.7196
 20
50.8152
 30
0.0
 11
50.7199
 21
50.8152
 31
0.0
  0
LINE
  8
0
 62
     0
 10
50.7199
 20
50.8152
 30
0.0
 11
50.7199
 21
64.8159
 31
0.0
  0
LINE
  8
0
 62
     0
 10
31.6701
 20
64.8159
 30
0.0
 11
45.6696
 21
64.8159
 31
0.0
  0
LINE
  8
0
 62
     0
 10
45.6696
 20
64.8159
 30
0.0
 11
45.6696
 21
50.8152
 31
0.0
  0
LINE
  8
0
 62
     0
 10
45.6696
 20
50.8152
 30
0.0
 11
31.6701
 21
50.8152
 31
0.0
  0
LINE
  8
0
 62
     0
 10
31.6701
 20
50.8152
 30
0.0
 11
31.6701
 21
64.8159
 31
0.0
  0
LINE
  8
0
 62
     0
 10
12.6201
 20
64.8159
 30
0.0
 11
26.6196
 21
64.8159
 31
0.0
  0
LINE
  8
0
 62
     0
 10
26.6196
 20
64.8159
 30
0.0
 11
26.6196
 21
50.8152
 31
0.0
  0
LINE
  8
0
 62
     0
 10
26.6196
 20
50.8152
 30
0.0
 11
12.6201
 21
50.8152
 31
0.0
  0
LINE
  8
0
 62
     0
 10
12.6201
 20
50.8152
 30
0.0
 11
12.6201
 21
64.8159
 31
0.0
  0
LINE
  8
0
 62
     0
 10
76.2688
 20
83.4401
 30
0.0
 11
76.2688
 21
82.6163
 31
0.0
  0
LINE
  8
0
 62
     0
 10
76.2688
 20
82.6163
 30
0.0
 11
69.9989
 21
82.6163
 31
0.0
  0
LINE
  8
0
 62
     0
 10
69.9989
 20
82.6163
 30
0.0
 11
69.9989
 21
80.8909
 31
0.0
  0
LINE
  8
0
 62
     0
 10
69.9989
 20
80.8909
 30
0.0
 11
69.0192
 21
80.8909
 31
0.0
  0
LINE
  8
0
 62
     0
 10
69.0192
 20
80.8909
 30
0.0
 11
69.0192
 21
77.5903
 31
0.0
  0
LINE
  8
0
 62
     0
 10
69.0192
 20
77.5903
 30
0.0
 11
69.9989
 21
77.5903
 31
0.0
  0
LINE
  8
0
 62
     0
 10
69.9989
 20
77.5903
 30
0.0
 11
69.9989
 21
75.8652
 31
0.0
  0
LINE
  8
0
 62
     0
 10
69.9989
 20
75.8652
 30
0.0
 11
74.4693
 21
75.8652
 31
0.0
  0
LINE
  8
0
 62
     0
 10
74.4693
 20
75.8652
 30
0.0
 11
74.4693
 21
74.3409
 31
0.0
  0
LINE
  8
0
 62
     0
 10
74.4693
 20
74.3409
 30
0.0
 11
69.7699
 21
74.3409
 31
0.0
  0
LINE
  8
0
 62
     0
 10
69.7699
 20
74.3409
 30
0.0
 11
69.7699
 21
60.3402
 31
0.0
  0
LINE
  8
0
 62
     0
 10
69.7699
 20
60.3402
 30
0.0
 11
74.4693
 21
60.3402
 31
0.0
  0
LINE
  8
0
 62
     0
 10
74.4693
 20
60.3402
 30
0.0
 11
74.4693
 21
58.8162
 31
0.0
  0
LINE
  8
0
 62
     0
 10
74.4693
 20
58.8162
 30
0.0
 11
69.9989
 21
58.8162
 31
0.0
  0
LINE
  8
0
 62
     0
 10
69.9989
 20
58.8162
 30
0.0
 11
69.9989
 21
57.0907
 31
0.0
  0
LINE
  8
0
 62
     0
 10
69.9989
 20
57.0907
 30
0.0
 11
69.0192
 21
57.0907
 31
0.0
  0
LINE
  8
0
 62
     0
 10
69.0192
 20
57.0907
 30
0.0
 11
69.0192
 21
53.7905
 31
0.0
  0
LINE
  8
0
 62
     0
 10
69.0192
 20
53.7905
 30
0.0
 11
69.9989
 21
53.7905
 31
0.0
  0
LINE
  8
0
 62
     0
 10
69.9989
 20
53.7905
 30
0.0
 11
69.9989
 21
52.0665
 31
0.0
  0
LINE
  8
0
 62
     0
 10
69.9989
 20
52.0665
 30
0.0
 11
76.2688
 21
52.0665
 31
0.0
  0
LINE
  8
0
 62
     0
 10
76.2688
 20
52.0665
 30
0.0
 11
76.2688
 21
51.241
 31
0.0
  0
LINE
  8
0
 62
     0
 10
76.2688
 20
51.241
 30
0.0
 11
79.0691
 21
51.241
 31
0.0
  0
LINE
  8
0
 62
     0
 10
79.0691
 20
51.241
 30
0.0
 11
79.0691
 21
52.0665
 31
0.0
  0
LINE
  8
0
 62
     0
 10
79.0691
 20
52.0665
 30
0.0
 11
82.2992
 21
52.0665
 31
0.0
  0
LINE
  8
0
 62
     0
 10
82.2992
 20
52.0665
 30
0.0
 11
82.2992
 21
53.7905
 31
0.0
  0
LINE
  8
0
 62
     0
 10
82.2992
 20
53.7905
 30
0.0
 11
83.2196
 21
53.7905
 31
0.0
  0
LINE
  8
0
 62
     0
 10
83.2196
 20
53.7905
 30
0.0
 11
83.2196
 21
57.0907
 31
0.0
  0
LINE
  8
0
 62
     0
 10
83.2196
 20
57.0907
 30
0.0
 11
82.2992
 21
57.0907
 31
0.0
  0
LINE
  8
0
 62
     0
 10
82.2992
 20
57.0907
 30
0.0
 11
82.2992
 21
58.8162
 31
0.0
  0
LINE
  8
0
 62
     0
 10
82.2992
 20
58.8162
 30
0.0
 11
79.0691
 21
58.8162
 31
0.0
  0
LINE
  8
0
 62
     0
 10
79.0691
 20
58.8162
 30
0.0
 11
79.0691
 21
60.3402
 31
0.0
  0
LINE
  8
0
 62
     0
 10
79.0691
 20
60.3402
 30
0.0
 11
83.7696
 21
60.3402
 31
0.0
  0
LINE
  8
0
 62
     0
 10
83.7696
 20
60.3402
 30
0.0
 11
83.7696
 21
74.3409
 31
0.0
  0
LINE
  8
0
 62
     0
 10
83.7696
 20
74.3409
 30
0.0
 11
79.0691
 21
74.3409
 31
0.0
  0
LINE
  8
0
 62
     0
 10
79.0691
 20
74.3409
 30
0.0
 11
79.0691
 21
75.8652
 31
0.0
  0
LINE
  8
0
 62
     0
 10
79.0691
 20
75.8652
 30
0.0
 11
82.2992
 21
75.8652
 31
0.0
  0
LINE
  8
0
 62
     0
 10
82.2992
 20
75.8652
 30
0.0
 11
82.2992
 21
77.5903
 31
0.0
  0
LINE
  8
0
 62
     0
 10
82.2992
 20
77.5903
 30
0.0
 11
83.2196
 21
77.5903
 31
0.0
  0
LINE
  8
0
 62
     0
 10
83.2196
 20
77.5903
 30
0.0
 11
83.2196
 21
80.8909
 31
0.0
  0
LINE
  8
0
 62
     0
 10
83.2196
 20
80.8909
 30
0.0
 11
82.2992
 21
80.8909
 31
0.0
  0
LINE
  8
0
 62
     0
 10
82.2992
 20
80.8909
 30
0.0
 11
82.2992
 21
82.6163
 31
0.0
  0
LINE
  8
0
 62
     0
 10
82.2992
 20
82.6163
 30
0.0
 11
79.0691
 21
82.6163
 31
0.0
  0
LINE
  8
0
 62
     0
 10
79.0691
 20
82.6163
 30
0.0
 11
79.0691
 21
83.4401
 31
0.0
  0
LINE
  8
0
 62
     0
 10
79.0691
 20
83.4401
 30
0.0
 11
76.2688
 21
83.4401
 31
0.0
  0
LINE
  8
0
 62
     0
 10
4.55306
 20
71.3853
 30
0.0
 11
4.0652
 21
71.1369
 31
0.0
  0
LINE
  8
0
 62
     0
 10
4.0652
 20
71.1369
 30
0.0
 11
3.67799
 21
70.7499
 31
0.0
  0
LINE
  8
0
 62
     0
 10
3.67799
 20
70.7499
 30
0.0
 11
3.42994
 21
70.2635
 31
0.0
  0
LINE
  8
0
 62
     0
 10
3.42994
 20
70.2635
 30
0.0
 11
3.3445
 21
69.7219
 31
0.0
  0
LINE
  8
0
 62
     0
 10
3.3445
 20
69.7219
 30
0.0
 11
3.42994
 21
69.1804
 31
0.0
  0
LINE
  8
0
 62
     0
 10
3.42994
 20
69.1804
 30
0.0
 11
3.67799
 21
68.6925
 31
0.0
  0
LINE
  8
0
 62
     0
 10
3.67799
 20
68.6925
 30
0.0
 11
4.0652
 21
68.3052
 31
0.0
  0
LINE
  8
0
 62
     0
 10
4.0652
 20
68.3052
 30
0.0
 11
4.55306
 21
68.0572
 31
0.0
  0
LINE
  8
0
 62
     0
 10
4.55306
 20
68.0572
 30
0.0
 11
5.0946
 21
67.9718
 31
0.0
  0
LINE
  8
0
 62
     0
 10
5.0946
 20
67.9718
 30
0.0
 11
5.63481
 21
68.0572
 31
0.0
  0
LINE
  8
0
 62
     0
 10
5.63481
 20
68.0572
 30
0.0
 11
6.12263
 21
68.3052
 31
0.0
  0
LINE
  8
0
 62
     0
 10
6.12263
 20
68.3052
 30
0.0
 11
6.50984
 21
68.6925
 31
0.0
  0
LINE
  8
0
 62
     0
 10
6.50984
 20
68.6925
 30
0.0
 11
6.75792
 21
69.1804
 31
0.0
  0
LINE
  8
0
 62
     0
 10
6.75792
 20
69.1804
 30
0.0
 11
6.8447
 21
69.7219
 31
0.0
  0
LINE
  8
0
 62
     0
 10
6.8447
 20
69.7219
 30
0.0
 11
6.75792
 21
70.2635
 31
0.0
  0
LINE
  8
0
 62
     0
 10
6.75792
 20
70.2635
 30
0.0
 11
6.50984
 21
70.7499
 31
0.0
  0
LINE
  8
0
 62
     0
 10
6.50984
 20
70.7499
 30
0.0
 11
6.12263
 21
71.1369
 31
0.0
  0
LINE
  8
0
 62
     0
 10
6.12263
 20
71.1369
 30
0.0
 11
5.63481
 21
71.3853
 31
0.0
  0
LINE
  8
0
 62
     0
 10
5.63481
 20
71.3853
 30
0.0
 11
5.0946
 21
71.4721
 31
0.0
  0
LINE
  8
0
 62
     0
 10
5.0946
 20
71.4721
 30
0.0
 11
4.55306
 21
71.3853
 31
0.0
  0
LINE
  8
0
 62
     0
 10
90.7549
 20
71.3853
 30
0.0
 11
90.267
 21
71.1369
 31
0.0
  0
LINE
  8
0
 62
     0
 10
90.267
 20
71.1369
 30
0.0
 11
89.8797
 21
70.7499
 31
0.0
  0
LINE
  8
0
 62
     0
 10
89.8797
 20
70.7499
 30
0.0
 11
89.6303
 21
70.2635
 31
0.0
  0
LINE
  8
0
 62
     0
 10
89.6303
 20
70.2635
 30
0.0
 11
89.5449
 21
69.7219
 31
0.0
  0
LINE
  8
0
 62
     0
 10
89.5449
 20
69.7219
 30
0.0
 11
89.6303
 21
69.1804
 31
0.0
  0
LINE
  8
0
 62
     0
 10
89.6303
 20
69.1804
 30
0.0
 11
89.8797
 21
68.6925
 31
0.0
  0
LINE
  8
0
 62
     0
 10
89.8797
 20
68.6925
 30
0.0
 11
90.267
 21
68.3052
 31
0.0
  0
LINE
  8
0
 62
     0
 10
90.267
 20
68.3052
 30
0.0
 11
90.7549
 21
68.0572
 31
0.0
  0
LINE
  8
0
 62
     0
 10
90.7549
 20
68.0572
 30
0.0
 11
91.295
 21
67.9718
 31
0.0
  0
LINE
  8
0
 62
     0
 10
91.295
 20
67.9718
 30
0.0
 11
91.8351
 21
68.0572
 31
0.0
  0
LINE
  8
0
 62
     0
 10
91.8351
 20
68.0572
 30
0.0
 11
92.323
 21
68.3052
 31
0.0
  0
LINE
  8
0
 62
     0
 10
92.323
 20
68.3052
 30
0.0
 11
92.7104
 21
68.6925
 31
0.0
  0
LINE
  8
0
 62
     0
 10
92.7104
 20
68.6925
 30
0.0
 11
92.9598
 21
69.1804
 31
0.0
  0
LINE
  8
0
 62
     0
 10
92.9598
 20
69.1804
 30
0.0
 11
93.0451
 21
69.7219
 31
0.0
  0
LINE
  8
0
 62
     0
 10
93.0451
 20
69.7219
 30
0.0
 11
92.9598
 21
70.2635
 31
0.0
  0
LINE
  8
0
 62
     0
 10
92.9598
 20
70.2635
 30
0.0
 11
92.7104
 21
70.7499
 31
0.0
  0
LINE
  8
0
 62
     0
 10
92.7104
 20
70.7499
 30
0.0
 11
92.323
 21
71.1369
 31
0.0
  0
LINE
  8
0
 62
     0
 10
92.323
 20
71.1369
 30
0.0
 11
91.8351
 21
71.3853
 31
0.0
  0
LINE
  8
0
 62
     0
 10
91.8351
 20
71.3853
 30
0.0
 11
91.295
 21
71.4721
 31
0.0
  0
LINE
  8
0
 62
     0
 10
91.295
 20
71.4721
 30
0.0
 11
90.7549
 21
71.3853
 31
0.0
  0
LINE
  8
0
 62
     0
 10
50.7199
 20
83.8659
 30
0.0
 11
64.7196
 21
83.8659
 31
0.0
  0
LINE
  8
0
 62
     0
 10
64.7196
 20
83.8659
 30
0.0
 11
64.7196
 21
69.8652
 31
0.0
  0
LINE
  8
0
 62
     0
 10
64.7196
 20
69.8652
 30
0.0
 11
50.7199
 21
69.8652
 31
0.0
  0
LINE
  8
0
 62
     0
 10
50.7199
 20
69.8652
 30
0.0
 11
50.7199
 21
83.8659
 31
0.0
  0
LINE
  8
0
 62
     0
 10
31.6701
 20
83.8659
 30
0.0
 11
45.6696
 21
83.8659
 31
0.0
  0
LINE
  8
0
 62
     0
 10
45.6696
 20
83.8659
 30
0.0
 11
45.6696
 21
69.8652
 31
0.0
  0
LINE
  8
0
 62
     0
 10
45.6696
 20
69.8652
 30
0.0
 11
31.6701
 21
69.8652
 31
0.0
  0
LINE
  8
0
 62
     0
 10
31.6701
 20
69.8652
 30
0.0
 11
31.6701
 21
83.8659
 31
0.0
  0
LINE
  8
0
 62
     0
 10
12.6201
 20
83.8659
 30
0.0
 11
26.6196
 21
83.8659
 31
0.0
  0
LINE
  8
0
 62
     0
 10
26.6196
 20
83.8659
 30
0.0
 11
26.6196
 21
69.8652
 31
0.0
  0
LINE
  8
0
 62
     0
 10
26.6196
 20
69.8652
 30
0.0
 11
12.6201
 21
69.8652
 31
0.0
  0
LINE
  8
0
 62
     0
 10
12.6201
 20
69.8652
 30
0.0
 11
12.6201
 21
83.8659
 31
0.0
  0
LINE
  8
0
 62
     0
 10
69.7699
 20
102.916
 30
0.0
 11
83.7696
 21
102.916
 31
0.0
  0
LINE
  8
0
 62
     0
 10
83.7696
 20
102.916
 30
0.0
 11
83.7696
 21
88.9152
 31
0.0
  0
LINE
  8
0
 62
     0
 10
83.7696
 20
88.9152
 30
0.0
 11
69.7699
 21
88.9152
 31
0.0
  0
LINE
  8
0
 62
     0
 10
69.7699
 20
88.9152
 30
0.0
 11
69.7699
 21
102.916
 31
0.0
  0
LINE
  8
0
 62
     0
 10
50.7199
 20
102.916
 30
0.0
 11
64.7196
 21
102.916
 31
0.0
  0
LINE
  8
0
 62
     0
 10
64.7196
 20
102.916
 30
0.0
 11
64.7196
 21
88.9152
 31
0.0
  0
LINE
  8
0
 62
     0
 10
64.7196
 20
88.9152
 30
0.0
 11
50.7199
 21
88.9152
 31
0.0
  0
LINE
  8
0
 62
     0
 10
50.7199
 20
88.9152
 30
0.0
 11
50.7199
 21
102.916
 31
0.0
  0
LINE
  8
0
 62
     0
 10
31.6701
 20
102.916
 30
0.0
 11
45.6696
 21
102.916
 31
0.0
  0
LINE
  8
0
 62
     0
 10
45.6696
 20
102.916
 30
0.0
 11
45.6696
 21
88.9152
 31
0.0
  0
LINE
  8
0
 62
     0
 10
45.6696
 20
88.9152
 30
0.0
 11
31.6701
 21
88.9152
 31
0.0
  0
LINE
  8
0
 62
     0
 10
31.6701
 20
88.9152
 30
0.0
 11
31.6701
 21
102.916
 31
0.0
  0
LINE
  8
0
 62
     0
 10
12.6201
 20
102.916
 30
0.0
 11
26.6196
 21
102.916
 31
0.0
  0
LINE
  8
0
 62
     0
 10
26.6196
 20
102.916
 30
0.0
 11
26.6196
 21
88.9152
 31
0.0
  0
LINE
  8
0
 62
     0
 10
26.6196
 20
88.9152
 30
0.0
 11
12.6201
 21
88.9152
 31
0.0
  0
LINE
  8
0
 62
     0
 10
12.6201
 20
88.9152
 30
0.0
 11
12.6201
 21
102.916
 31
0.0
  0
LINE
  8
0
 62
     0
 10
4.55306
 20
135.917
 30
0.0
 11
4.0652
 21
135.669
 31
0.0
  0
LINE
  8
0
 62
     0
 10
4.0652
 20
135.669
 30
0.0
 11
3.67799
 21
135.282
 31
0.0
  0
LINE
  8
0
 62
     0
 10
3.67799
 20
135.282
 30
0.0
 11
3.42994
 21
134.794
 31
0.0
  0
LINE
  8
0
 62
     0
 10
3.42994
 20
134.794
 30
0.0
 11
3.3445
 21
134.253
 31
0.0
  0
LINE
  8
0
 62
     0
 10
3.3445
 20
134.253
 30
0.0
 11
3.42994
 21
133.712
 31
0.0
  0
LINE
  8
0
 62
     0
 10
3.42994
 20
133.712
 30
0.0
 11
3.67799
 21
133.225
 31
0.0
  0
LINE
  8
0
 62
     0
 10
3.67799
 20
133.225
 30
0.0
 11
4.0652
 21
132.837
 31
0.0
  0
LINE
  8
0
 62
     0
 10
4.0652
 20
132.837
 30
0.0
 11
4.55306
 21
132.589
 31
0.0
  0
LINE
  8
0
 62
     0
 10
4.55306
 20
132.589
 30
0.0
 11
5.0946
 21
132.503
 31
0.0
  0
LINE
  8
0
 62
     0
 10
5.0946
 20
132.503
 30
0.0
 11
5.63481
 21
132.589
 31
0.0
  0
LINE
  8
0
 62
     0
 10
5.63481
 20
132.589
 30
0.0
 11
6.12263
 21
132.837
 31
0.0
  0
LINE
  8
0
 62
     0
 10
6.12263
 20
132.837
 30
0.0
 11
6.50984
 21
133.225
 31
0.0
  0
LINE
  8
0
 62
     0
 10
6.50984
 20
133.225
 30
0.0
 11
6.75792
 21
133.712
 31
0.0
  0
LINE
  8
0
 62
     0
 10
6.75792
 20
133.712
 30
0.0
 11
6.8447
 21
134.253
 31
0.0
  0
LINE
  8
0
 62
     0
 10
6.8447
 20
134.253
 30
0.0
 11
6.75792
 21
134.794
 31
0.0
  0
LINE
  8
0
 62
     0
 10
6.75792
 20
134.794
 30
0.0
 11
6.50984
 21
135.282
 31
0.0
  0
LINE
  8
0
 62
     0
 10
6.50984
 20
135.282
 30
0.0
 11
6.12263
 21
135.669
 31
0.0
  0
LINE
  8
0
 62
     0
 10
6.12263
 20
135.669
 30
0.0
 11
5.63481
 21
135.917
 31
0.0
  0
LINE
  8
0
 62
     0
 10
5.63481
 20
135.917
 30
0.0
 11
5.0946
 21
136.003
 31
0.0
  0
LINE
  8
0
 62
     0
 10
5.0946
 20
136.003
 30
0.0
 11
4.55306
 21
135.917
 31
0.0
  0
LINE
  8
0
 62
     0
 10
90.7549
 20
135.917
 30
0.0
 11
90.267
 21
135.669
 31
0.0
  0
LINE
  8
0
 62
     0
 10
90.267
 20
135.669
 30
0.0
 11
89.8797
 21
135.282
 31
0.0
  0
LINE
  8
0
 62
     0
 10
89.8797
 20
135.282
 30
0.0
 11
89.6303
 21
134.794
 31
0.0
  0
LINE
  8
0
 62
     0
 10
89.6303
 20
134.794
 30
0.0
 11
89.5449
 21
134.253
 31
0.0
  0
LINE
  8
0
 62
     0
 10
89.5449
 20
134.253
 30
0.0
 11
89.6303
 21
133.712
 31
0.0
  0
LINE
  8
0
 62
     0
 10
89.6303
 20
133.712
 30
0.0
 11
89.8797
 21
133.225
 31
0.0
  0
LINE
  8
0
 62
     0
 10
89.8797
 20
133.225
 30
0.0
 11
90.267
 21
132.837
 31
0.0
  0
LINE
  8
0
 62
     0
 10
90.267
 20
132.837
 30
0.0
 11
90.7549
 21
132.589
 31
0.0
  0
LINE
  8
0
 62
     0
 10
90.7549
 20
132.589
 30
0.0
 11
91.295
 21
132.503
 31
0.0
  0
LINE
  8
0
 62
     0
 10
91.295
 20
132.503
 30
0.0
 11
91.8351
 21
132.589
 31
0.0
  0
LINE
  8
0
 62
     0
 10
91.8351
 20
132.589
 30
0.0
 11
92.323
 21
132.837
 31
0.0
  0
LINE
  8
0
 62
     0
 10
92.323
 20
132.837
 30
0.0
 11
92.7104
 21
133.225
 31
0.0
  0
LINE
  8
0
 62
     0
 10
92.7104
 20
133.225
 30
0.0
 11
92.9598
 21
133.712
 31
0.0
  0
LINE
  8
0
 62
     0
 10
92.9598
 20
133.712
 30
0.0
 11
93.0451
 21
134.253
 31
0.0
  0
LINE
  8
0
 62
     0
 10
93.0451
 20
134.253
 30
0.0
 11
92.9598
 21
134.794
 31
0.0
  0
LINE
  8
0
 62
     0
 10
92.9598
 20
134.794
 30
0.0
 11
92.7104
 21
135.282
 31
0.0
  0
LINE
  8
0
 62
     0
 10
92.7104
 20
135.282
 30
0.0
 11
92.323
 21
135.669
 31
0.0
  0
LINE
  8
0
 62
     0
 10
92.323
 20
135.669
 30
0.0
 11
91.8351
 21
135.917
 31
0.0
  0
LINE
  8
0
 62
     0
 10
91.8351
 20
135.917
 30
0.0
 11
91.295
 21
136.003
 31
0.0
  0
LINE
  8
0
 62
     0
 10
91.295
 20
136.003
 30
0.0
 11
90.7549
 21
135.917
 31
0.0
  0
ENDSEC
  0
EOF
