  0
SECTION
  2
HEADER
  9
$ACADVER
  1
AC1009
  9
$EXTMIN
 10
0.0
 20
0.0
 30
0.0
  9
$EXTMAX
 10
1000.0
 20
1000.0
 30
0.0
  9
$FILLMODE
 70
 0
  9
$SPLFRAME
 70
 1
  0
ENDSEC
  0
SECTION
  2
TABLES
  0
TABLE
  2
LAYER
 70
1
  0
LAYER
  2
0
 70
     0
 62
     7
  6
CONTINUOUS
  0
ENDTAB
  0
ENDSEC
  0
SECTION
  2
ENTITIES
  0
LINE
  8
0
 62
     0
 10
0.0950846
 20
139.252
 30
0.0
 11
96.296
 21
139.252
 31
0.0
  0
LINE
  8
0
 62
     0
 10
96.296
 20
139.252
 30
0.0
 11
96.296
 21
0.190169
 31
0.0
  0
LINE
  8
0
 62
     0
 10
96.296
 20
0.190169
 30
0.0
 11
0.0950846
 21
0.190169
 31
0.0
  0
LINE
  8
0
 62
     0
 10
0.0950846
 20
0.190169
 30
0.0
 11
0.0950846
 21
139.252
 31
0.0
  0
LINE
  8
0
 62
     0
 10
4.55306
 20
6.85437
 30
0.0
 11
4.0652
 21
6.60633
 31
0.0
  0
LINE
  8
0
 62
     0
 10
4.0652
 20
6.60633
 30
0.0
 11
3.67799
 21
6.21908
 31
0.0
  0
LINE
  8
0
 62
     0
 10
3.67799
 20
6.21908
 30
0.0
 11
3.42994
 21
5.73126
 31
0.0
  0
LINE
  8
0
 62
     0
 10
3.42994
 20
5.73126
 30
0.0
 11
3.3445
 21
5.18968
 31
0.0
  0
LINE
  8
0
 62
     0
 10
3.3445
 20
5.18968
 30
0.0
 11
3.42994
 21
4.64813
 31
0.0
  0
LINE
  8
0
 62
     0
 10
3.42994
 20
4.64813
 30
0.0
 11
3.67799
 21
4.16031
 31
0.0
  0
LINE
  8
0
 62
     0
 10
3.67799
 20
4.16031
 30
0.0
 11
4.0652
 21
3.77306
 31
0.0
  0
LINE
  8
0
 62
     0
 10
4.0652
 20
3.77306
 30
0.0
 11
4.55306
 21
3.5264
 31
0.0
  0
LINE
  8
0
 62
     0
 10
4.55306
 20
3.5264
 30
0.0
 11
5.0946
 21
3.43958
 31
0.0
  0
LINE
  8
0
 62
     0
 10
5.0946
 20
3.43958
 30
0.0
 11
5.63481
 21
3.5264
 31
0.0
  0
LINE
  8
0
 62
     0
 10
5.63481
 20
3.5264
 30
0.0
 11
6.12263
 21
3.77306
 31
0.0
  0
LINE
  8
0
 62
     0
 10
6.12263
 20
3.77306
 30
0.0
 11
6.50984
 21
4.16031
 31
0.0
  0
LINE
  8
0
 62
     0
 10
6.50984
 20
4.16031
 30
0.0
 11
6.75792
 21
4.64813
 31
0.0
  0
LINE
  8
0
 62
     0
 10
6.75792
 20
4.64813
 30
0.0
 11
6.8447
 21
5.18968
 31
0.0
  0
LINE
  8
0
 62
     0
 10
6.8447
 20
5.18968
 30
0.0
 11
6.75792
 21
5.73126
 31
0.0
  0
LINE
  8
0
 62
     0
 10
6.75792
 20
5.73126
 30
0.0
 11
6.50984
 21
6.21908
 31
0.0
  0
LINE
  8
0
 62
     0
 10
6.50984
 20
6.21908
 30
0.0
 11
6.12263
 21
6.60633
 31
0.0
  0
LINE
  8
0
 62
     0
 10
6.12263
 20
6.60633
 30
0.0
 11
5.63481
 21
6.85437
 31
0.0
  0
LINE
  8
0
 62
     0
 10
5.63481
 20
6.85437
 30
0.0
 11
5.0946
 21
6.93981
 31
0.0
  0
LINE
  8
0
 62
     0
 10
5.0946
 20
6.93981
 30
0.0
 11
4.55306
 21
6.85437
 31
0.0
  0
LINE
  8
0
 62
     0
 10
90.7549
 20
6.85437
 30
0.0
 11
90.267
 21
6.60633
 31
0.0
  0
LINE
  8
0
 62
     0
 10
90.267
 20
6.60633
 30
0.0
 11
89.8797
 21
6.21908
 31
0.0
  0
LINE
  8
0
 62
     0
 10
89.8797
 20
6.21908
 30
0.0
 11
89.6303
 21
5.73126
 31
0.0
  0
LINE
  8
0
 62
     0
 10
89.6303
 20
5.73126
 30
0.0
 11
89.5449
 21
5.18968
 31
0.0
  0
LINE
  8
0
 62
     0
 10
89.5449
 20
5.18968
 30
0.0
 11
89.6303
 21
4.64813
 31
0.0
  0
LINE
  8
0
 62
     0
 10
89.6303
 20
4.64813
 30
0.0
 11
89.8797
 21
4.16031
 31
0.0
  0
LINE
  8
0
 62
     0
 10
89.8797
 20
4.16031
 30
0.0
 11
90.267
 21
3.77306
 31
0.0
  0
LINE
  8
0
 62
     0
 10
90.267
 20
3.77306
 30
0.0
 11
90.7549
 21
3.5264
 31
0.0
  0
LINE
  8
0
 62
     0
 10
90.7549
 20
3.5264
 30
0.0
 11
91.295
 21
3.43958
 31
0.0
  0
LINE
  8
0
 62
     0
 10
91.295
 20
3.43958
 30
0.0
 11
91.8351
 21
3.5264
 31
0.0
  0
LINE
  8
0
 62
     0
 10
91.8351
 20
3.5264
 30
0.0
 11
92.323
 21
3.77306
 31
0.0
  0
LINE
  8
0
 62
     0
 10
92.323
 20
3.77306
 30
0.0
 11
92.7104
 21
4.16031
 31
0.0
  0
LINE
  8
0
 62
     0
 10
92.7104
 20
4.16031
 30
0.0
 11
92.9598
 21
4.64813
 31
0.0
  0
LINE
  8
0
 62
     0
 10
92.9598
 20
4.64813
 30
0.0
 11
93.0451
 21
5.18968
 31
0.0
  0
LINE
  8
0
 62
     0
 10
93.0451
 20
5.18968
 30
0.0
 11
92.9598
 21
5.73126
 31
0.0
  0
LINE
  8
0
 62
     0
 10
92.9598
 20
5.73126
 30
0.0
 11
92.7104
 21
6.21908
 31
0.0
  0
LINE
  8
0
 62
     0
 10
92.7104
 20
6.21908
 30
0.0
 11
92.323
 21
6.60633
 31
0.0
  0
LINE
  8
0
 62
     0
 10
92.323
 20
6.60633
 30
0.0
 11
91.8351
 21
6.85437
 31
0.0
  0
LINE
  8
0
 62
     0
 10
91.8351
 20
6.85437
 30
0.0
 11
91.295
 21
6.93981
 31
0.0
  0
LINE
  8
0
 62
     0
 10
91.295
 20
6.93981
 30
0.0
 11
90.7549
 21
6.85437
 31
0.0
  0
LINE
  8
0
 62
     0
 10
4.55306
 20
71.3853
 30
0.0
 11
4.0652
 21
71.1369
 31
0.0
  0
LINE
  8
0
 62
     0
 10
4.0652
 20
71.1369
 30
0.0
 11
3.67799
 21
70.7499
 31
0.0
  0
LINE
  8
0
 62
     0
 10
3.67799
 20
70.7499
 30
0.0
 11
3.42994
 21
70.2635
 31
0.0
  0
LINE
  8
0
 62
     0
 10
3.42994
 20
70.2635
 30
0.0
 11
3.3445
 21
69.7219
 31
0.0
  0
LINE
  8
0
 62
     0
 10
3.3445
 20
69.7219
 30
0.0
 11
3.42994
 21
69.1804
 31
0.0
  0
LINE
  8
0
 62
     0
 10
3.42994
 20
69.1804
 30
0.0
 11
3.67799
 21
68.6925
 31
0.0
  0
LINE
  8
0
 62
     0
 10
3.67799
 20
68.6925
 30
0.0
 11
4.0652
 21
68.3052
 31
0.0
  0
LINE
  8
0
 62
     0
 10
4.0652
 20
68.3052
 30
0.0
 11
4.55306
 21
68.0572
 31
0.0
  0
LINE
  8
0
 62
     0
 10
4.55306
 20
68.0572
 30
0.0
 11
5.0946
 21
67.9718
 31
0.0
  0
LINE
  8
0
 62
     0
 10
5.0946
 20
67.9718
 30
0.0
 11
5.63481
 21
68.0572
 31
0.0
  0
LINE
  8
0
 62
     0
 10
5.63481
 20
68.0572
 30
0.0
 11
6.12263
 21
68.3052
 31
0.0
  0
LINE
  8
0
 62
     0
 10
6.12263
 20
68.3052
 30
0.0
 11
6.50984
 21
68.6925
 31
0.0
  0
LINE
  8
0
 62
     0
 10
6.50984
 20
68.6925
 30
0.0
 11
6.75792
 21
69.1804
 31
0.0
  0
LINE
  8
0
 62
     0
 10
6.75792
 20
69.1804
 30
0.0
 11
6.8447
 21
69.7219
 31
0.0
  0
LINE
  8
0
 62
     0
 10
6.8447
 20
69.7219
 30
0.0
 11
6.75792
 21
70.2635
 31
0.0
  0
LINE
  8
0
 62
     0
 10
6.75792
 20
70.2635
 30
0.0
 11
6.50984
 21
70.7499
 31
0.0
  0
LINE
  8
0
 62
     0
 10
6.50984
 20
70.7499
 30
0.0
 11
6.12263
 21
71.1369
 31
0.0
  0
LINE
  8
0
 62
     0
 10
6.12263
 20
71.1369
 30
0.0
 11
5.63481
 21
71.3853
 31
0.0
  0
LINE
  8
0
 62
     0
 10
5.63481
 20
71.3853
 30
0.0
 11
5.0946
 21
71.4721
 31
0.0
  0
LINE
  8
0
 62
     0
 10
5.0946
 20
71.4721
 30
0.0
 11
4.55306
 21
71.3853
 31
0.0
  0
LINE
  8
0
 62
     0
 10
90.7549
 20
71.3853
 30
0.0
 11
90.267
 21
71.1369
 31
0.0
  0
LINE
  8
0
 62
     0
 10
90.267
 20
71.1369
 30
0.0
 11
89.8797
 21
70.7499
 31
0.0
  0
LINE
  8
0
 62
     0
 10
89.8797
 20
70.7499
 30
0.0
 11
89.6303
 21
70.2635
 31
0.0
  0
LINE
  8
0
 62
     0
 10
89.6303
 20
70.2635
 30
0.0
 11
89.5449
 21
69.7219
 31
0.0
  0
LINE
  8
0
 62
     0
 10
89.5449
 20
69.7219
 30
0.0
 11
89.6303
 21
69.1804
 31
0.0
  0
LINE
  8
0
 62
     0
 10
89.6303
 20
69.1804
 30
0.0
 11
89.8797
 21
68.6925
 31
0.0
  0
LINE
  8
0
 62
     0
 10
89.8797
 20
68.6925
 30
0.0
 11
90.267
 21
68.3052
 31
0.0
  0
LINE
  8
0
 62
     0
 10
90.267
 20
68.3052
 30
0.0
 11
90.7549
 21
68.0572
 31
0.0
  0
LINE
  8
0
 62
     0
 10
90.7549
 20
68.0572
 30
0.0
 11
91.295
 21
67.9718
 31
0.0
  0
LINE
  8
0
 62
     0
 10
91.295
 20
67.9718
 30
0.0
 11
91.8351
 21
68.0572
 31
0.0
  0
LINE
  8
0
 62
     0
 10
91.8351
 20
68.0572
 30
0.0
 11
92.323
 21
68.3052
 31
0.0
  0
LINE
  8
0
 62
     0
 10
92.323
 20
68.3052
 30
0.0
 11
92.7104
 21
68.6925
 31
0.0
  0
LINE
  8
0
 62
     0
 10
92.7104
 20
68.6925
 30
0.0
 11
92.9598
 21
69.1804
 31
0.0
  0
LINE
  8
0
 62
     0
 10
92.9598
 20
69.1804
 30
0.0
 11
93.0451
 21
69.7219
 31
0.0
  0
LINE
  8
0
 62
     0
 10
93.0451
 20
69.7219
 30
0.0
 11
92.9598
 21
70.2635
 31
0.0
  0
LINE
  8
0
 62
     0
 10
92.9598
 20
70.2635
 30
0.0
 11
92.7104
 21
70.7499
 31
0.0
  0
LINE
  8
0
 62
     0
 10
92.7104
 20
70.7499
 30
0.0
 11
92.323
 21
71.1369
 31
0.0
  0
LINE
  8
0
 62
     0
 10
92.323
 20
71.1369
 30
0.0
 11
91.8351
 21
71.3853
 31
0.0
  0
LINE
  8
0
 62
     0
 10
91.8351
 20
71.3853
 30
0.0
 11
91.295
 21
71.4721
 31
0.0
  0
LINE
  8
0
 62
     0
 10
91.295
 20
71.4721
 30
0.0
 11
90.7549
 21
71.3853
 31
0.0
  0
LINE
  8
0
 62
     0
 10
4.55306
 20
135.917
 30
0.0
 11
4.0652
 21
135.669
 31
0.0
  0
LINE
  8
0
 62
     0
 10
4.0652
 20
135.669
 30
0.0
 11
3.67799
 21
135.282
 31
0.0
  0
LINE
  8
0
 62
     0
 10
3.67799
 20
135.282
 30
0.0
 11
3.42994
 21
134.794
 31
0.0
  0
LINE
  8
0
 62
     0
 10
3.42994
 20
134.794
 30
0.0
 11
3.3445
 21
134.253
 31
0.0
  0
LINE
  8
0
 62
     0
 10
3.3445
 20
134.253
 30
0.0
 11
3.42994
 21
133.712
 31
0.0
  0
LINE
  8
0
 62
     0
 10
3.42994
 20
133.712
 30
0.0
 11
3.67799
 21
133.225
 31
0.0
  0
LINE
  8
0
 62
     0
 10
3.67799
 20
133.225
 30
0.0
 11
4.0652
 21
132.837
 31
0.0
  0
LINE
  8
0
 62
     0
 10
4.0652
 20
132.837
 30
0.0
 11
4.55306
 21
132.589
 31
0.0
  0
LINE
  8
0
 62
     0
 10
4.55306
 20
132.589
 30
0.0
 11
5.0946
 21
132.503
 31
0.0
  0
LINE
  8
0
 62
     0
 10
5.0946
 20
132.503
 30
0.0
 11
5.63481
 21
132.589
 31
0.0
  0
LINE
  8
0
 62
     0
 10
5.63481
 20
132.589
 30
0.0
 11
6.12263
 21
132.837
 31
0.0
  0
LINE
  8
0
 62
     0
 10
6.12263
 20
132.837
 30
0.0
 11
6.50984
 21
133.225
 31
0.0
  0
LINE
  8
0
 62
     0
 10
6.50984
 20
133.225
 30
0.0
 11
6.75792
 21
133.712
 31
0.0
  0
LINE
  8
0
 62
     0
 10
6.75792
 20
133.712
 30
0.0
 11
6.8447
 21
134.253
 31
0.0
  0
LINE
  8
0
 62
     0
 10
6.8447
 20
134.253
 30
0.0
 11
6.75792
 21
134.794
 31
0.0
  0
LINE
  8
0
 62
     0
 10
6.75792
 20
134.794
 30
0.0
 11
6.50984
 21
135.282
 31
0.0
  0
LINE
  8
0
 62
     0
 10
6.50984
 20
135.282
 30
0.0
 11
6.12263
 21
135.669
 31
0.0
  0
LINE
  8
0
 62
     0
 10
6.12263
 20
135.669
 30
0.0
 11
5.63481
 21
135.917
 31
0.0
  0
LINE
  8
0
 62
     0
 10
5.63481
 20
135.917
 30
0.0
 11
5.0946
 21
136.003
 31
0.0
  0
LINE
  8
0
 62
     0
 10
5.0946
 20
136.003
 30
0.0
 11
4.55306
 21
135.917
 31
0.0
  0
LINE
  8
0
 62
     0
 10
90.7549
 20
135.917
 30
0.0
 11
90.267
 21
135.669
 31
0.0
  0
LINE
  8
0
 62
     0
 10
90.267
 20
135.669
 30
0.0
 11
89.8797
 21
135.282
 31
0.0
  0
LINE
  8
0
 62
     0
 10
89.8797
 20
135.282
 30
0.0
 11
89.6303
 21
134.794
 31
0.0
  0
LINE
  8
0
 62
     0
 10
89.6303
 20
134.794
 30
0.0
 11
89.5449
 21
134.253
 31
0.0
  0
LINE
  8
0
 62
     0
 10
89.5449
 20
134.253
 30
0.0
 11
89.6303
 21
133.712
 31
0.0
  0
LINE
  8
0
 62
     0
 10
89.6303
 20
133.712
 30
0.0
 11
89.8797
 21
133.225
 31
0.0
  0
LINE
  8
0
 62
     0
 10
89.8797
 20
133.225
 30
0.0
 11
90.267
 21
132.837
 31
0.0
  0
LINE
  8
0
 62
     0
 10
90.267
 20
132.837
 30
0.0
 11
90.7549
 21
132.589
 31
0.0
  0
LINE
  8
0
 62
     0
 10
90.7549
 20
132.589
 30
0.0
 11
91.295
 21
132.503
 31
0.0
  0
LINE
  8
0
 62
     0
 10
91.295
 20
132.503
 30
0.0
 11
91.8351
 21
132.589
 31
0.0
  0
LINE
  8
0
 62
     0
 10
91.8351
 20
132.589
 30
0.0
 11
92.323
 21
132.837
 31
0.0
  0
LINE
  8
0
 62
     0
 10
92.323
 20
132.837
 30
0.0
 11
92.7104
 21
133.225
 31
0.0
  0
LINE
  8
0
 62
     0
 10
92.7104
 20
133.225
 30
0.0
 11
92.9598
 21
133.712
 31
0.0
  0
LINE
  8
0
 62
     0
 10
92.9598
 20
133.712
 30
0.0
 11
93.0451
 21
134.253
 31
0.0
  0
LINE
  8
0
 62
     0
 10
93.0451
 20
134.253
 30
0.0
 11
92.9598
 21
134.794
 31
0.0
  0
LINE
  8
0
 62
     0
 10
92.9598
 20
134.794
 30
0.0
 11
92.7104
 21
135.282
 31
0.0
  0
LINE
  8
0
 62
     0
 10
92.7104
 20
135.282
 30
0.0
 11
92.323
 21
135.669
 31
0.0
  0
LINE
  8
0
 62
     0
 10
92.323
 20
135.669
 30
0.0
 11
91.8351
 21
135.917
 31
0.0
  0
LINE
  8
0
 62
     0
 10
91.8351
 20
135.917
 30
0.0
 11
91.295
 21
136.003
 31
0.0
  0
LINE
  8
0
 62
     0
 10
91.295
 20
136.003
 30
0.0
 11
90.7549
 21
135.917
 31
0.0
  0
ENDSEC
  0
EOF
